<?xml version="1.0" encoding="utf-8"?><!-- Uploaded to: SVG Repo, www.svgrepo.com, Generator: SVG Repo Mixer Tools -->
<svg width="800px" height="800px" viewBox="0 0 18 18" xmlns="http://www.w3.org/2000/svg">
  <path fill="#758CA3" d="M9 12a3.14 3.14 0 0 1-1.64-.462L0 7.056V14a1 1 0 0 0 1 1h16a1 1 0 0 0 1-1V7.056l-7.354 4.48A3.148 3.148 0 0 1 9 12z"/>
  <path fill="#758CA3" d="M17.466 5.04L9.6 9.83a1.144 1.144 0 0 1-1.2 0L.534 5.04a1.09 1.09 0 0 1-.49-1.24 1.14 1.14 0 0 1 1.09-.8h15.733a1.138 1.138 0 0 1 1.09.8 1.09 1.09 0 0 1-.49 1.24z"/>
</svg>