<?xml version="1.0" encoding="utf-8"?>
<!-- Uploaded to: SVG Repo, www.svgrepo.com, Generator: SVG Repo Mixer Tools -->
<svg version="1.1" id="Uploaded to svgrepo.com" xmlns="http://www.w3.org/2000/svg" xmlns:xlink="http://www.w3.org/1999/xlink" 
	 width="800px" height="800px" viewBox="0 0 32 32" xml:space="preserve">
<style type="text/css">
	.pictogram_een{fill:#F4D6B0;}
	.pictogram_vijf{fill:#01A59C;}
	.pictogram_zes{fill:#0C6667;}
	.st0{fill:#F8AD89;}
	.st1{fill:#E54D2E;}
	.st2{fill:#F27261;}
	.st3{fill:none;}
	.st4{clip-path:url(#SVGID_2_);fill:#F27261;}
	.st5{clip-path:url(#SVGID_2_);fill:none;}
	.st6{clip-path:url(#SVGID_6_);fill:#F4D6B0;}
	.st7{clip-path:url(#SVGID_8_);fill:#F27261;}
	.st8{clip-path:url(#SVGID_8_);fill:none;}
	.st9{clip-path:url(#SVGID_10_);fill:#F27261;}
	.st10{clip-path:url(#SVGID_10_);fill:none;}
	.st11{fill:#F4D6B0;}
</style>
<g>
	<path class="pictogram_zes" d="M32,29c0,1.65-1.35,3-3,3H3c-1.65,0-3-1.35-3-3V3c0-1.65,1.35-3,3-3h26c1.65,0,3,1.35,3,3V29z"/>
	<g>
		<g>
			<path class="pictogram_een" d="M7.102,29c-0.384,0-0.768-0.146-1.061-0.439c-0.586-0.585-0.586-1.536,0-2.121l1.585-1.585H6
				c-0.607,0-1.154-0.366-1.386-0.926c-0.232-0.561-0.104-1.206,0.325-1.635l3.772-3.772c0.586-0.586,1.535-0.586,2.121,0
				s0.586,1.536,0,2.121l-1.211,1.211h1.626c0.607,0,1.154,0.365,1.386,0.926c0.232,0.561,0.104,1.206-0.325,1.635l-4.146,4.146
				C7.87,28.854,7.486,29,7.102,29z"/>
		</g>
		<g>
			<path class="pictogram_een" d="M7.102,29c-0.384,0-0.768-0.146-1.061-0.439c-0.586-0.585-0.586-1.536,0-2.121l1.585-1.585H6
				c-0.607,0-1.154-0.366-1.386-0.926c-0.232-0.561-0.104-1.206,0.325-1.635l3.772-3.772c0.586-0.586,1.535-0.586,2.121,0
				s0.586,1.536,0,2.121l-1.211,1.211h1.626c0.607,0,1.154,0.365,1.386,0.926c0.232,0.561,0.104,1.206-0.325,1.635l-4.146,4.146
				C7.87,28.854,7.486,29,7.102,29z"/>
		</g>
	</g>
	<path class="pictogram_vijf" d="M13.389,22.193c-0.586-0.586-0.586-1.535,0-2.121l1.414-1.414c0.586-0.586,1.535-0.586,2.121,0
		c0.586,0.586,0.586,1.535,0,2.121l-1.414,1.414C14.925,22.779,13.975,22.779,13.389,22.193z M16.46,27.561l1.414-1.414
		c0.586-0.586,0.586-1.535,0-2.121c-0.586-0.586-1.535-0.586-2.121,0l-1.414,1.414c-0.586,0.586-0.586,1.535,0,2.121
		C14.925,28.146,15.874,28.146,16.46,27.561z M20.46,22.193l1.414-1.414c0.586-0.586,0.586-1.535,0-2.121s-1.535-0.586-2.121,0
		l-1.414,1.414c-0.586,0.586-0.586,1.535,0,2.121S19.874,22.779,20.46,22.193z M25.282,12.417c0.082-0.218,0.132-0.452,0.132-0.699
		c0-1.326-1.29-2.338-2.633-1.888c-0.049-1.275-0.546-2.534-1.521-3.509c-2.128-2.128-5.723-2.113-7.78,0.366
		c-3.13-0.437-5.689,2.005-5.689,4.937c0,0.244,0.023,0.482,0.057,0.715H7.708c-1.105,0-2,0.895-2,2V15c0,1.105,0.895,2,2,2h17.053
		c1.105,0,2-0.895,2-2v-0.66C26.762,13.417,26.133,12.648,25.282,12.417z"/>
</g>
</svg>