<?xml version="1.0" encoding="iso-8859-1"?>
<!-- Uploaded to: SVG Repo, www.svgrepo.com, Generator: SVG Repo Mixer Tools -->
<svg height="800px" width="800px" version="1.1" id="Layer_1" xmlns="http://www.w3.org/2000/svg" xmlns:xlink="http://www.w3.org/1999/xlink" 
	 viewBox="0 0 480 480" xml:space="preserve">
<circle style="fill:#9777A8;" cx="240" cy="240" r="240"/>
<path style="fill:#3B3C3D;" d="M414.72,104.384c-9.728,25.6-34.432,43.904-63.488,43.904c-6.592,0-13.12-1.024-19.2-2.816
	c-15.872,25.472-43.584,42.88-75.52,44.416l-5.12,23.808l16.384,6.72l-28.672,43.392l7.68-40.576l-12.608-2.688
	c-1.216-0.192-1.792-1.6-1.472-3.072l6.016-28.224c-38.208-5.376-68.992-33.792-78.016-70.784c-4.672-4.928-8.896-10.176-12.48-16
	c-6.08,1.792-12.48,2.816-19.2,2.816c-25.28,0-47.296-13.824-59.008-34.304C115.008,25.6,176.192,0.128,240,0
	c75.712,0.128,146.88,35.776,192.128,96.512C426.688,100.032,420.928,102.592,414.72,104.384z M55.872,212.224l2.176,3.712
	l20.48-65.088l-2.304-3.712L55.872,212.224z M134.4,280.192l2.176,3.712l20.48-65.088l-2.304-3.712L134.4,280.192z M216.384,339.52
	l2.176,3.776l20.48-65.088l-2.304-3.776L216.384,339.52z M320.192,280.192l2.176,3.712l20.48-65.088l-2.304-3.712L320.192,280.192z
	 M414.016,213.312l20.48-65.088l-2.304-3.776l-20.416,65.088L414.016,213.312z M55.872,339.52l2.176,3.776l20.48-65.088
	l-2.304-3.776L55.872,339.52z M134.4,384.896l2.176,3.712l20.48-65.088l-2.304-3.712L134.4,384.896z M216.384,444.224l2.176,3.712
	l20.48-65.088l-2.304-3.712L216.384,444.224z M320.192,384.896l2.176,3.712l20.48-65.088l-2.304-3.712L320.192,384.896z
	 M411.776,339.52l2.176,3.776l20.48-65.088l-2.304-3.776L411.776,339.52z"/>
</svg>