<?xml version="1.0" encoding="utf-8"?><!-- Uploaded to: SVG Repo, www.svgrepo.com, Generator: SVG Repo Mixer Tools -->
<svg width="800px" height="800px" viewBox="0 0 400 400" fill="none" xmlns="http://www.w3.org/2000/svg">
<path d="M226.443 277.84C226.608 277.193 226.663 276.514 226.773 275.851C228.489 265.453 229.872 255.007 230.869 244.5C231.716 235.56 232.691 226.646 234.3 217.804C236.425 206.122 238.256 194.373 240.043 182.624" stroke="#D3D3D3" stroke-opacity="0.9" stroke-width="16" stroke-linecap="round" stroke-linejoin="round"/>
<path d="M165.887 183.113C165.944 186.233 170.566 210.738 172.459 219.91C173.99 227.327 175.717 234.748 176.547 242.26C177.603 251.802 178.938 261.288 180.247 270.789" stroke="#D3D3D3" stroke-opacity="0.9" stroke-width="16" stroke-linecap="round" stroke-linejoin="round"/>
<path fill-rule="evenodd" clip-rule="evenodd" d="M200.792 311.241C202.297 310.836 203.483 310.744 204.977 311.168C213.233 313.514 221.29 316.472 229.493 318.986C238.511 321.751 247.597 322.794 256.816 322.228C265.809 321.677 274.768 320.346 283.694 319.042C289.736 318.16 314.71 312.264 314.71 295.287C314.71 278.311 292.556 278.576 290.277 278.876C285.041 279.566 279.827 279.504 274.566 279.205C268.28 278.846 261.931 278.639 255.784 280.378C247.718 282.659 238.737 285.038 230.768 287.627C228.96 288.216 227.437 288.365 226.063 287.295C223.261 285.116 213.588 282.304 204.622 282.304C195.656 282.304 184.755 284.747 182.602 286.461C178.674 289.585 174.976 289.114 171.475 285.696C168.672 282.96 165.392 281.288 161.674 280.351C158.422 279.531 155.14 278.825 151.874 278.055C137.414 274.642 95.5463 274.642 97.5682 295.287C98.3175 302.939 102.975 309.493 105.789 311.314C109.576 313.765 139.98 318.877 151.107 318.796C171.475 321.03 193.298 313.256 200.792 311.241Z" stroke="#D3D3D3" stroke-opacity="0.9" stroke-width="16" stroke-linecap="round" stroke-linejoin="round"/>
<path d="M80.2999 279.838C83.1762 280.433 86.0604 280.879 89.0412 280.78C91.875 280.687 94.4565 280.107 96.6096 278.213C99.0534 276.062 110.275 274.425 115.073 272.937C119.887 271.445 128.875 266.284 132.991 263.242C134.598 262.054 135.695 260.729 136.535 259.008C145.393 240.87 146.486 238.549 151.541 219.102C152.38 215.872 162.324 181.886 165.908 182.806M241.84 180.446C244.396 180.327 247.309 219.765 261.504 256.589C264.068 263.242 297.7 273.325 305.73 275.096C310.236 276.089 316.819 277.526 320.028 274.275" stroke="#D3D3D3" stroke-opacity="0.9" stroke-width="16" stroke-linecap="round" stroke-linejoin="round"/>
<path d="M171.19 93.1887C205.192 46.449 267.208 121.707 223.629 152.512C189.766 176.452 150.009 139.138 165.908 106.671" stroke="#D3D3D3" stroke-opacity="0.9" stroke-width="16" stroke-linecap="round" stroke-linejoin="round"/>
</svg>