<?xml version="1.0" encoding="iso-8859-1"?>
<!-- Uploaded to: SVG Repo, www.svgrepo.com, Generator: SVG Repo Mixer Tools -->
<svg height="800px" width="800px" version="1.1" id="Capa_1" xmlns="http://www.w3.org/2000/svg" xmlns:xlink="http://www.w3.org/1999/xlink" 
	 viewBox="0 0 512 512" xml:space="preserve">
<path style="fill:#575757;" d="M379.703,455.5L379.703,455.5c-71.345,0.001-126.36-73.109-128.667-76.222
	c-4.835-6.523-4.835-15.441,0-21.962c2.306-3.113,57.323-76.223,128.666-76.223c71.346,0,126.365,73.11,128.671,76.222
	c4.836,6.523,4.836,15.442,0,21.964C506.066,382.391,451.048,455.5,379.703,455.5L379.703,455.5z"/>
<path style="fill:#74D6D0;" d="M324.333,366.059c-17.384,0-29.48-1.768-29.987-1.843c-8.03-1.194-14.336-7.499-15.529-15.529
	c-0.569-3.832-13.368-94.431,37.081-144.879c17.759-17.759,52.11-38.93,114.898-38.93c17.384,0,29.478,1.768,29.984,1.843
	c8.031,1.194,14.337,7.499,15.529,15.531c0.569,3.832,13.362,94.433-37.089,144.88C421.466,344.89,387.117,366.059,324.333,366.059z
	"/>
<path style="fill:#707070;" d="M132.298,455.5L132.298,455.5C60.952,455.501,5.934,382.391,3.627,379.28
	c-4.836-6.523-4.836-15.441,0-21.964c2.306-3.112,57.325-76.222,128.671-76.222c71.345,0,126.36,73.11,128.667,76.223
	c4.835,6.523,4.835,15.44,0,21.962C258.657,382.391,203.643,455.5,132.298,455.5L132.298,455.5z"/>
<path style="fill:#CCF7F5;" d="M188.212,366.365c-0.001,0-0.001,0-0.002,0c-62.786-0.001-97.134-21.171-114.891-38.929
	c-50.45-50.446-37.657-141.047-37.086-144.879c1.192-8.031,7.498-14.337,15.529-15.53c0.506-0.076,12.6-1.843,29.984-1.843
	c62.788,0,97.138,21.17,114.897,38.93c50.449,50.449,37.653,141.047,37.084,144.879c-1.194,8.031-7.498,14.337-15.529,15.529
	C217.689,364.597,205.594,366.365,188.212,366.365z"/>
<path style="fill:#4CD6D5;" d="M256.175,386.282c-3.86,0-7.72-1.208-10.982-3.627c-3.916-2.903-95.907-72.123-95.907-161.266
	c0-89.14,91.992-158.36,95.907-161.262c6.523-4.836,15.441-4.835,21.964,0c3.917,2.903,95.913,72.123,95.913,161.264
	c0,89.143-91.997,158.364-95.913,161.267C263.895,385.074,260.035,386.282,256.175,386.282z"/>
<path style="fill:#06ABA4;" d="M267.156,60.126c-3.309-2.454-7.237-3.656-11.155-3.619v329.77c0.058,0,0.116,0.006,0.173,0.006
	c3.86,0,7.72-1.208,10.982-3.627c3.917-2.903,95.913-72.124,95.913-161.267C363.069,132.25,271.072,63.028,267.156,60.126z"/>
</svg>